<svg xmlns="http://www.w3.org/2000/svg" width="76" height="22" viewBox="0 0 76 22">
  <defs>
    <style>
      .cls-1 {
        fill: #2f2f2f;
      }
    </style>
  </defs>
  <title>icon</title>
  <g id="icon">
    <g>
      <path class="cls-1" d="M10.5,7.616A3.8,3.8,0,0,0,9.139,6.609a3.672,3.672,0,0,0-1.323-.252,4.412,4.412,0,0,0-1.791.351,4.107,4.107,0,0,0-1.377.972,4.413,4.413,0,0,0-.891,1.449,4.961,4.961,0,0,0-.315,1.782,5.469,5.469,0,0,0,.315,1.89,4.432,4.432,0,0,0,.891,1.494,4.157,4.157,0,0,0,1.377.99,4.319,4.319,0,0,0,1.791.36,3.292,3.292,0,0,0,1.5-.369,4.111,4.111,0,0,0,1.359-1.18l1.872,1.332a5.107,5.107,0,0,1-2.106,1.729A6.576,6.576,0,0,1,7.8,17.7a7.438,7.438,0,0,1-2.709-.478A6.071,6.071,0,0,1,1.57,13.773a7.072,7.072,0,0,1-.5-2.719,7.369,7.369,0,0,1,.5-2.78,6.24,6.24,0,0,1,1.4-2.134A6.129,6.129,0,0,1,5.089,4.781,7.438,7.438,0,0,1,7.8,4.3a6.219,6.219,0,0,1,2.4.459A5.61,5.61,0,0,1,12.262,6.32Z"/>
      <path class="cls-1" d="M15.069,4.628h2.268V9.7H23.3V4.628h2.268V17.372H23.3V11.756H17.337v5.616H15.069Z"/>
      <path class="cls-1" d="M29.4,4.628h8.442V6.68H31.666V9.813h5.85v2.052h-5.85V15.32h6.5v2.052H29.4Z"/>
      <path class="cls-1" d="M39.963,4.628h2.484l2.394,9.18h.036l2.862-9.18h2.232l2.808,9.18h.036l2.5-9.18h2.3L53.914,17.372h-2.16L48.8,7.67h-.036l-2.952,9.7H43.726Z"/>
      <path class="cls-1" d="M60.033,4.628h8.442V6.68H62.3V9.813h5.85v2.052H62.3V15.32h6.5v2.052H60.033Z"/>
      <path class="cls-1" d="M71.967,4.628h2.268V17.372H71.967Z"/>
    </g>
  </g>
</svg>
